<svg width="735" height="236" viewBox="0 0 735 236" fill="none" xmlns="http://www.w3.org/2000/svg">
<path d="M27.6328 156.977C28.1484 156.977 28.599 156.82 28.9844 156.508C29.3698 156.195 29.5833 155.805 29.625 155.336H30.9922C30.9661 155.82 30.7995 156.281 30.4922 156.719C30.1849 157.156 29.7734 157.505 29.2578 157.766C28.7474 158.026 28.2057 158.156 27.6328 158.156C26.4818 158.156 25.5651 157.773 24.8828 157.008C24.2057 156.237 23.8672 155.185 23.8672 153.852V153.609C23.8672 152.786 24.0182 152.055 24.3203 151.414C24.6224 150.773 25.0547 150.276 25.6172 149.922C26.1849 149.568 26.8542 149.391 27.625 149.391C28.5729 149.391 29.3594 149.674 29.9844 150.242C30.6146 150.81 30.9505 151.547 30.9922 152.453H29.625C29.5833 151.906 29.375 151.458 29 151.109C28.6302 150.755 28.1719 150.578 27.625 150.578C26.8906 150.578 26.3203 150.844 25.9141 151.375C25.513 151.901 25.3125 152.664 25.3125 153.664V153.938C25.3125 154.911 25.513 155.661 25.9141 156.188C26.3151 156.714 26.888 156.977 27.6328 156.977ZM34.1875 158H32.7422V146H34.1875V158ZM38.0781 158H36.6328V149.547H38.0781V158ZM36.5156 147.305C36.5156 147.07 36.5859 146.872 36.7266 146.711C36.8724 146.549 37.0859 146.469 37.3672 146.469C37.6484 146.469 37.862 146.549 38.0078 146.711C38.1536 146.872 38.2266 147.07 38.2266 147.305C38.2266 147.539 38.1536 147.734 38.0078 147.891C37.862 148.047 37.6484 148.125 37.3672 148.125C37.0859 148.125 36.8724 148.047 36.7266 147.891C36.5859 147.734 36.5156 147.539 36.5156 147.305ZM43.9062 158.156C42.7604 158.156 41.8281 157.781 41.1094 157.031C40.3906 156.276 40.0312 155.268 40.0312 154.008V153.742C40.0312 152.904 40.1901 152.156 40.5078 151.5C40.8307 150.839 41.2786 150.323 41.8516 149.953C42.4297 149.578 43.0547 149.391 43.7266 149.391C44.8255 149.391 45.6797 149.753 46.2891 150.477C46.8984 151.201 47.2031 152.237 47.2031 153.586V154.188H41.4766C41.4974 155.021 41.7396 155.695 42.2031 156.211C42.6719 156.721 43.2656 156.977 43.9844 156.977C44.4948 156.977 44.9271 156.872 45.2812 156.664C45.6354 156.456 45.9453 156.18 46.2109 155.836L47.0938 156.523C46.3854 157.612 45.3229 158.156 43.9062 158.156ZM43.7266 150.578C43.1432 150.578 42.6536 150.792 42.2578 151.219C41.862 151.641 41.6172 152.234 41.5234 153H45.7578V152.891C45.7161 152.156 45.5182 151.589 45.1641 151.188C44.8099 150.781 44.3307 150.578 43.7266 150.578ZM50.25 149.547L50.2969 150.609C50.9427 149.797 51.7865 149.391 52.8281 149.391C54.6146 149.391 55.5156 150.398 55.5312 152.414V158H54.0859V152.406C54.0807 151.797 53.9401 151.346 53.6641 151.055C53.3932 150.763 52.9688 150.617 52.3906 150.617C51.9219 150.617 51.5104 150.742 51.1562 150.992C50.8021 151.242 50.526 151.57 50.3281 151.977V158H48.8828V149.547H50.25ZM59.6719 147.5V149.547H61.25V150.664H59.6719V155.906C59.6719 156.245 59.7422 156.5 59.8828 156.672C60.0234 156.839 60.263 156.922 60.6016 156.922C60.7682 156.922 60.9974 156.891 61.2891 156.828V158C60.9089 158.104 60.5391 158.156 60.1797 158.156C59.5339 158.156 59.0469 157.961 58.7188 157.57C58.3906 157.18 58.2266 156.625 58.2266 155.906V150.664H56.6875V149.547H58.2266V147.5H59.6719ZM5.92969 180H4.47656V170.367L1.5625 171.438V170.125L5.70312 168.57H5.92969V180ZM15.7031 175C15.401 175.359 15.0391 175.648 14.6172 175.867C14.2005 176.086 13.7422 176.195 13.2422 176.195C12.5859 176.195 12.013 176.034 11.5234 175.711C11.0391 175.388 10.6641 174.935 10.3984 174.352C10.1328 173.763 10 173.115 10 172.406C10 171.646 10.1432 170.961 10.4297 170.352C10.7214 169.742 11.1328 169.276 11.6641 168.953C12.1953 168.63 12.8151 168.469 13.5234 168.469C14.6484 168.469 15.5339 168.891 16.1797 169.734C16.8307 170.573 17.1562 171.719 17.1562 173.172V173.594C17.1562 175.807 16.7188 177.424 15.8438 178.445C14.9688 179.461 13.6484 179.982 11.8828 180.008H11.6016V178.789H11.9062C13.099 178.768 14.0156 178.458 14.6562 177.859C15.2969 177.255 15.6458 176.302 15.7031 175ZM13.4766 175C13.9609 175 14.4062 174.852 14.8125 174.555C15.224 174.258 15.5234 173.891 15.7109 173.453V172.875C15.7109 171.927 15.5052 171.156 15.0938 170.562C14.6823 169.969 14.1615 169.672 13.5312 169.672C12.8958 169.672 12.3854 169.917 12 170.406C11.6146 170.891 11.4219 171.531 11.4219 172.328C11.4219 173.104 11.6068 173.745 11.9766 174.25C12.3516 174.75 12.8516 175 13.4766 175ZM26.6016 180H19.1484V178.961L23.0859 174.586C23.6693 173.924 24.0703 173.388 24.2891 172.977C24.513 172.56 24.625 172.13 24.625 171.688C24.625 171.094 24.4453 170.607 24.0859 170.227C23.7266 169.846 23.2474 169.656 22.6484 169.656C21.9297 169.656 21.3698 169.862 20.9688 170.273C20.5729 170.68 20.375 171.247 20.375 171.977H18.9297C18.9297 170.93 19.2656 170.083 19.9375 169.438C20.6146 168.792 21.5182 168.469 22.6484 168.469C23.7057 168.469 24.5417 168.747 25.1562 169.305C25.7708 169.857 26.0781 170.594 26.0781 171.516C26.0781 172.635 25.3646 173.969 23.9375 175.516L20.8906 178.82H26.6016V180ZM28.3125 179.242C28.3125 178.992 28.3854 178.784 28.5312 178.617C28.6823 178.451 28.9062 178.367 29.2031 178.367C29.5 178.367 29.724 178.451 29.875 178.617C30.0312 178.784 30.1094 178.992 30.1094 179.242C30.1094 179.482 30.0312 179.682 29.875 179.844C29.724 180.005 29.5 180.086 29.2031 180.086C28.9062 180.086 28.6823 180.005 28.5312 179.844C28.3854 179.682 28.3125 179.482 28.3125 179.242ZM37.1016 180H35.6484V170.367L32.7344 171.438V170.125L36.875 168.57H37.1016V180ZM47.0078 168.617V169.844H46.7422C45.6172 169.865 44.7214 170.198 44.0547 170.844C43.388 171.49 43.0026 172.398 42.8984 173.57C43.4974 172.883 44.3151 172.539 45.3516 172.539C46.3411 172.539 47.1302 172.888 47.7188 173.586C48.3125 174.284 48.6094 175.185 48.6094 176.289C48.6094 177.461 48.2891 178.398 47.6484 179.102C47.013 179.805 46.1589 180.156 45.0859 180.156C43.9974 180.156 43.1146 179.74 42.4375 178.906C41.7604 178.068 41.4219 176.99 41.4219 175.672V175.117C41.4219 173.023 41.8672 171.424 42.7578 170.32C43.6536 169.211 44.9844 168.643 46.75 168.617H47.0078ZM45.1094 173.742C44.6146 173.742 44.1589 173.891 43.7422 174.188C43.3255 174.484 43.0365 174.857 42.875 175.305V175.836C42.875 176.773 43.0859 177.529 43.5078 178.102C43.9297 178.674 44.4557 178.961 45.0859 178.961C45.737 178.961 46.2474 178.721 46.6172 178.242C46.9922 177.763 47.1797 177.135 47.1797 176.359C47.1797 175.578 46.9896 174.948 46.6094 174.469C46.2344 173.984 45.7344 173.742 45.1094 173.742ZM57.2188 171.594C57.2188 172.161 57.0677 172.667 56.7656 173.109C56.4688 173.552 56.0651 173.898 55.5547 174.148C56.1484 174.404 56.6172 174.776 56.9609 175.266C57.3099 175.755 57.4844 176.31 57.4844 176.93C57.4844 177.914 57.151 178.698 56.4844 179.281C55.8229 179.865 54.9505 180.156 53.8672 180.156C52.7734 180.156 51.8958 179.865 51.2344 179.281C50.5781 178.693 50.25 177.909 50.25 176.93C50.25 176.315 50.4167 175.76 50.75 175.266C51.0885 174.771 51.5547 174.396 52.1484 174.141C51.6432 173.891 51.2448 173.544 50.9531 173.102C50.6615 172.659 50.5156 172.156 50.5156 171.594C50.5156 170.635 50.8229 169.875 51.4375 169.312C52.0521 168.75 52.862 168.469 53.8672 168.469C54.8672 168.469 55.6745 168.75 56.2891 169.312C56.9089 169.875 57.2188 170.635 57.2188 171.594ZM56.0391 176.898C56.0391 176.263 55.8359 175.745 55.4297 175.344C55.0286 174.943 54.5026 174.742 53.8516 174.742C53.2005 174.742 52.6771 174.94 52.2812 175.336C51.8906 175.732 51.6953 176.253 51.6953 176.898C51.6953 177.544 51.8854 178.052 52.2656 178.422C52.651 178.792 53.1849 178.977 53.8672 178.977C54.5443 178.977 55.0755 178.792 55.4609 178.422C55.8464 178.047 56.0391 177.539 56.0391 176.898ZM53.8672 169.656C53.2995 169.656 52.8385 169.833 52.4844 170.188C52.1354 170.536 51.9609 171.013 51.9609 171.617C51.9609 172.195 52.1328 172.664 52.4766 173.023C52.8255 173.378 53.2891 173.555 53.8672 173.555C54.4453 173.555 54.9062 173.378 55.25 173.023C55.599 172.664 55.7734 172.195 55.7734 171.617C55.7734 171.039 55.5938 170.568 55.2344 170.203C54.875 169.839 54.4193 169.656 53.8672 169.656ZM59.4844 179.242C59.4844 178.992 59.5573 178.784 59.7031 178.617C59.8542 178.451 60.0781 178.367 60.375 178.367C60.6719 178.367 60.8958 178.451 61.0469 178.617C61.2031 178.784 61.2812 178.992 61.2812 179.242C61.2812 179.482 61.2031 179.682 61.0469 179.844C60.8958 180.005 60.6719 180.086 60.375 180.086C60.0781 180.086 59.8542 180.005 59.7031 179.844C59.5573 179.682 59.4844 179.482 59.4844 179.242ZM68.2734 180H66.8203V170.367L63.9062 171.438V170.125L68.0469 168.57H68.2734V180ZM72.6875 179.242C72.6875 178.992 72.7604 178.784 72.9062 178.617C73.0573 178.451 73.2812 178.367 73.5781 178.367C73.875 178.367 74.099 178.451 74.25 178.617C74.4062 178.784 74.4844 178.992 74.4844 179.242C74.4844 179.482 74.4062 179.682 74.25 179.844C74.099 180.005 73.875 180.086 73.5781 180.086C73.2812 180.086 73.0573 180.005 72.9062 179.844C72.7604 179.682 72.6875 179.482 72.6875 179.242ZM84.1797 180H76.7266V178.961L80.6641 174.586C81.2474 173.924 81.6484 173.388 81.8672 172.977C82.0911 172.56 82.2031 172.13 82.2031 171.688C82.2031 171.094 82.0234 170.607 81.6641 170.227C81.3047 169.846 80.8255 169.656 80.2266 169.656C79.5078 169.656 78.9479 169.862 78.5469 170.273C78.151 170.68 77.9531 171.247 77.9531 171.977H76.5078C76.5078 170.93 76.8438 170.083 77.5156 169.438C78.1927 168.792 79.0964 168.469 80.2266 168.469C81.2839 168.469 82.1198 168.747 82.7344 169.305C83.349 169.857 83.6562 170.594 83.6562 171.516C83.6562 172.635 82.9427 173.969 81.5156 175.516L78.4688 178.82H84.1797V180Z" fill="black"/>
<path d="M676.594 161.758C676.594 161.367 676.445 161.065 676.148 160.852C675.857 160.633 675.344 160.445 674.609 160.289C673.88 160.133 673.299 159.945 672.867 159.727C672.44 159.508 672.122 159.247 671.914 158.945C671.711 158.643 671.609 158.284 671.609 157.867C671.609 157.174 671.901 156.589 672.484 156.109C673.073 155.63 673.823 155.391 674.734 155.391C675.693 155.391 676.469 155.638 677.062 156.133C677.661 156.628 677.961 157.26 677.961 158.031H676.508C676.508 157.635 676.339 157.294 676 157.008C675.667 156.721 675.245 156.578 674.734 156.578C674.208 156.578 673.797 156.693 673.5 156.922C673.203 157.151 673.055 157.451 673.055 157.82C673.055 158.169 673.193 158.432 673.469 158.609C673.745 158.786 674.242 158.956 674.961 159.117C675.685 159.279 676.271 159.471 676.719 159.695C677.167 159.919 677.497 160.19 677.711 160.508C677.93 160.82 678.039 161.203 678.039 161.656C678.039 162.411 677.737 163.018 677.133 163.477C676.529 163.93 675.745 164.156 674.781 164.156C674.104 164.156 673.505 164.036 672.984 163.797C672.464 163.557 672.055 163.224 671.758 162.797C671.466 162.365 671.32 161.898 671.32 161.398H672.766C672.792 161.883 672.984 162.268 673.344 162.555C673.708 162.836 674.188 162.977 674.781 162.977C675.328 162.977 675.766 162.867 676.094 162.648C676.427 162.424 676.594 162.128 676.594 161.758ZM683.43 164.156C682.284 164.156 681.352 163.781 680.633 163.031C679.914 162.276 679.555 161.268 679.555 160.008V159.742C679.555 158.904 679.714 158.156 680.031 157.5C680.354 156.839 680.802 156.323 681.375 155.953C681.953 155.578 682.578 155.391 683.25 155.391C684.349 155.391 685.203 155.753 685.812 156.477C686.422 157.201 686.727 158.237 686.727 159.586V160.188H681C681.021 161.021 681.263 161.695 681.727 162.211C682.195 162.721 682.789 162.977 683.508 162.977C684.018 162.977 684.451 162.872 684.805 162.664C685.159 162.456 685.469 162.18 685.734 161.836L686.617 162.523C685.909 163.612 684.846 164.156 683.43 164.156ZM683.25 156.578C682.667 156.578 682.177 156.792 681.781 157.219C681.385 157.641 681.141 158.234 681.047 159H685.281V158.891C685.24 158.156 685.042 157.589 684.688 157.188C684.333 156.781 683.854 156.578 683.25 156.578ZM692.492 156.844C692.273 156.807 692.036 156.789 691.781 156.789C690.833 156.789 690.19 157.193 689.852 158V164H688.406V155.547H689.812L689.836 156.523C690.31 155.768 690.982 155.391 691.852 155.391C692.133 155.391 692.346 155.427 692.492 155.5V156.844ZM696.758 162.039L698.852 155.547H700.328L697.297 164H696.195L693.133 155.547H694.609L696.758 162.039ZM705.117 164.156C703.971 164.156 703.039 163.781 702.32 163.031C701.602 162.276 701.242 161.268 701.242 160.008V159.742C701.242 158.904 701.401 158.156 701.719 157.5C702.042 156.839 702.49 156.323 703.062 155.953C703.641 155.578 704.266 155.391 704.938 155.391C706.036 155.391 706.891 155.753 707.5 156.477C708.109 157.201 708.414 158.237 708.414 159.586V160.188H702.688C702.708 161.021 702.951 161.695 703.414 162.211C703.883 162.721 704.477 162.977 705.195 162.977C705.706 162.977 706.138 162.872 706.492 162.664C706.846 162.456 707.156 162.18 707.422 161.836L708.305 162.523C707.596 163.612 706.534 164.156 705.117 164.156ZM704.938 156.578C704.354 156.578 703.865 156.792 703.469 157.219C703.073 157.641 702.828 158.234 702.734 159H706.969V158.891C706.927 158.156 706.729 157.589 706.375 157.188C706.021 156.781 705.542 156.578 704.938 156.578ZM714.18 156.844C713.961 156.807 713.724 156.789 713.469 156.789C712.521 156.789 711.878 157.193 711.539 158V164H710.094V155.547H711.5L711.523 156.523C711.997 155.768 712.669 155.391 713.539 155.391C713.82 155.391 714.034 155.427 714.18 155.5V156.844ZM655.93 186H654.477V176.367L651.562 177.438V176.125L655.703 174.57H655.93V186ZM665.703 181C665.401 181.359 665.039 181.648 664.617 181.867C664.201 182.086 663.742 182.195 663.242 182.195C662.586 182.195 662.013 182.034 661.523 181.711C661.039 181.388 660.664 180.935 660.398 180.352C660.133 179.763 660 179.115 660 178.406C660 177.646 660.143 176.961 660.43 176.352C660.721 175.742 661.133 175.276 661.664 174.953C662.195 174.63 662.815 174.469 663.523 174.469C664.648 174.469 665.534 174.891 666.18 175.734C666.831 176.573 667.156 177.719 667.156 179.172V179.594C667.156 181.807 666.719 183.424 665.844 184.445C664.969 185.461 663.648 185.982 661.883 186.008H661.602V184.789H661.906C663.099 184.768 664.016 184.458 664.656 183.859C665.297 183.255 665.646 182.302 665.703 181ZM663.477 181C663.961 181 664.406 180.852 664.812 180.555C665.224 180.258 665.523 179.891 665.711 179.453V178.875C665.711 177.927 665.505 177.156 665.094 176.562C664.682 175.969 664.161 175.672 663.531 175.672C662.896 175.672 662.385 175.917 662 176.406C661.615 176.891 661.422 177.531 661.422 178.328C661.422 179.104 661.607 179.745 661.977 180.25C662.352 180.75 662.852 181 663.477 181ZM676.602 186H669.148V184.961L673.086 180.586C673.669 179.924 674.07 179.388 674.289 178.977C674.513 178.56 674.625 178.13 674.625 177.688C674.625 177.094 674.445 176.607 674.086 176.227C673.727 175.846 673.247 175.656 672.648 175.656C671.93 175.656 671.37 175.862 670.969 176.273C670.573 176.68 670.375 177.247 670.375 177.977H668.93C668.93 176.93 669.266 176.083 669.938 175.438C670.615 174.792 671.518 174.469 672.648 174.469C673.706 174.469 674.542 174.747 675.156 175.305C675.771 175.857 676.078 176.594 676.078 177.516C676.078 178.635 675.365 179.969 673.938 181.516L670.891 184.82H676.602V186ZM678.312 185.242C678.312 184.992 678.385 184.784 678.531 184.617C678.682 184.451 678.906 184.367 679.203 184.367C679.5 184.367 679.724 184.451 679.875 184.617C680.031 184.784 680.109 184.992 680.109 185.242C680.109 185.482 680.031 185.682 679.875 185.844C679.724 186.005 679.5 186.086 679.203 186.086C678.906 186.086 678.682 186.005 678.531 185.844C678.385 185.682 678.312 185.482 678.312 185.242ZM687.102 186H685.648V176.367L682.734 177.438V176.125L686.875 174.57H687.102V186ZM697.008 174.617V175.844H696.742C695.617 175.865 694.721 176.198 694.055 176.844C693.388 177.49 693.003 178.398 692.898 179.57C693.497 178.883 694.315 178.539 695.352 178.539C696.341 178.539 697.13 178.888 697.719 179.586C698.312 180.284 698.609 181.185 698.609 182.289C698.609 183.461 698.289 184.398 697.648 185.102C697.013 185.805 696.159 186.156 695.086 186.156C693.997 186.156 693.115 185.74 692.438 184.906C691.76 184.068 691.422 182.99 691.422 181.672V181.117C691.422 179.023 691.867 177.424 692.758 176.32C693.654 175.211 694.984 174.643 696.75 174.617H697.008ZM695.109 179.742C694.615 179.742 694.159 179.891 693.742 180.188C693.326 180.484 693.036 180.857 692.875 181.305V181.836C692.875 182.773 693.086 183.529 693.508 184.102C693.93 184.674 694.456 184.961 695.086 184.961C695.737 184.961 696.247 184.721 696.617 184.242C696.992 183.763 697.18 183.135 697.18 182.359C697.18 181.578 696.99 180.948 696.609 180.469C696.234 179.984 695.734 179.742 695.109 179.742ZM707.219 177.594C707.219 178.161 707.068 178.667 706.766 179.109C706.469 179.552 706.065 179.898 705.555 180.148C706.148 180.404 706.617 180.776 706.961 181.266C707.31 181.755 707.484 182.31 707.484 182.93C707.484 183.914 707.151 184.698 706.484 185.281C705.823 185.865 704.951 186.156 703.867 186.156C702.773 186.156 701.896 185.865 701.234 185.281C700.578 184.693 700.25 183.909 700.25 182.93C700.25 182.315 700.417 181.76 700.75 181.266C701.089 180.771 701.555 180.396 702.148 180.141C701.643 179.891 701.245 179.544 700.953 179.102C700.661 178.659 700.516 178.156 700.516 177.594C700.516 176.635 700.823 175.875 701.438 175.312C702.052 174.75 702.862 174.469 703.867 174.469C704.867 174.469 705.674 174.75 706.289 175.312C706.909 175.875 707.219 176.635 707.219 177.594ZM706.039 182.898C706.039 182.263 705.836 181.745 705.43 181.344C705.029 180.943 704.503 180.742 703.852 180.742C703.201 180.742 702.677 180.94 702.281 181.336C701.891 181.732 701.695 182.253 701.695 182.898C701.695 183.544 701.885 184.052 702.266 184.422C702.651 184.792 703.185 184.977 703.867 184.977C704.544 184.977 705.076 184.792 705.461 184.422C705.846 184.047 706.039 183.539 706.039 182.898ZM703.867 175.656C703.299 175.656 702.839 175.833 702.484 176.188C702.135 176.536 701.961 177.013 701.961 177.617C701.961 178.195 702.133 178.664 702.477 179.023C702.826 179.378 703.289 179.555 703.867 179.555C704.445 179.555 704.906 179.378 705.25 179.023C705.599 178.664 705.773 178.195 705.773 177.617C705.773 177.039 705.594 176.568 705.234 176.203C704.875 175.839 704.419 175.656 703.867 175.656ZM709.484 185.242C709.484 184.992 709.557 184.784 709.703 184.617C709.854 184.451 710.078 184.367 710.375 184.367C710.672 184.367 710.896 184.451 711.047 184.617C711.203 184.784 711.281 184.992 711.281 185.242C711.281 185.482 711.203 185.682 711.047 185.844C710.896 186.005 710.672 186.086 710.375 186.086C710.078 186.086 709.854 186.005 709.703 185.844C709.557 185.682 709.484 185.482 709.484 185.242ZM718.273 186H716.82V176.367L713.906 177.438V176.125L718.047 174.57H718.273V186ZM722.688 185.242C722.688 184.992 722.76 184.784 722.906 184.617C723.057 184.451 723.281 184.367 723.578 184.367C723.875 184.367 724.099 184.451 724.25 184.617C724.406 184.784 724.484 184.992 724.484 185.242C724.484 185.482 724.406 185.682 724.25 185.844C724.099 186.005 723.875 186.086 723.578 186.086C723.281 186.086 723.057 186.005 722.906 185.844C722.76 185.682 722.688 185.482 722.688 185.242ZM731.477 186H730.023V176.367L727.109 177.438V176.125L731.25 174.57H731.477V186Z" fill="black"/>
<path d="M76.25 82.625H66.75V77.875C66.75 75.2542 64.6254 73.125 62 73.125H9.75C7.12459 73.125 5 75.2542 5 77.875V115.875C5 118.501 7.12459 120.625 9.75 120.625H31.125L26.375 130.125H45.375L40.625 120.625H57.25V130.125C57.25 132.751 59.3746 134.875 62 134.875H76.25C78.8756 134.875 81 132.75 81 130.125V87.375C81 84.7542 78.8756 82.625 76.25 82.625ZM9.75 111.125V77.875H62V82.625C59.3744 82.625 57.25 84.7542 57.25 87.375V111.125H9.75ZM69.125 130.125C67.8122 130.125 66.75 129.063 66.75 127.75C66.75 126.437 67.8122 125.375 69.125 125.375C70.4378 125.375 71.5 126.437 71.5 127.75C71.5 129.063 70.4378 130.125 69.125 130.125ZM69.125 120.625C67.8122 120.625 66.75 119.563 66.75 118.25C66.75 116.937 67.8122 115.875 69.125 115.875C70.4378 115.875 71.5 116.937 71.5 118.25C71.5 119.563 70.4378 120.625 69.125 120.625ZM76.25 101.625H66.75H62V96.875H76.25V101.625ZM76.25 92.125H62V87.375H76.25V92.125Z" fill="#323D3A"/>
<path d="M726.25 82.625H716.75V77.875C716.75 75.2542 714.625 73.125 712 73.125H659.75C657.125 73.125 655 75.2542 655 77.875V115.875C655 118.501 657.125 120.625 659.75 120.625H681.125L676.375 130.125H695.375L690.625 120.625H707.25V130.125C707.25 132.751 709.375 134.875 712 134.875H726.25C728.876 134.875 731 132.75 731 130.125V87.375C731 84.7542 728.876 82.625 726.25 82.625ZM659.75 111.125V77.875H712V82.625C709.374 82.625 707.25 84.7542 707.25 87.375V111.125H659.75ZM719.125 130.125C717.812 130.125 716.75 129.063 716.75 127.75C716.75 126.437 717.812 125.375 719.125 125.375C720.438 125.375 721.5 126.437 721.5 127.75C721.5 129.063 720.438 130.125 719.125 130.125ZM719.125 120.625C717.812 120.625 716.75 119.563 716.75 118.25C716.75 116.937 717.812 115.875 719.125 115.875C720.438 115.875 721.5 116.937 721.5 118.25C721.5 119.563 720.438 120.625 719.125 120.625ZM726.25 101.625H716.75H712V96.875H726.25V101.625ZM726.25 92.125H712V87.375H726.25V92.125Z" fill="#323D3A"/>
<path d="M337.837 55.0698C321.837 50.0698 302.837 32.0698 294.837 71.0698C268.837 66.0698 254.837 93.0698 272.836 111.07C256.837 131.07 257.837 146.07 294.837 151.07C294.837 181.07 329.837 184.07 346.836 164.07C363.837 187.07 378.837 183.07 393.836 164.07C413.837 181.07 432.837 177.07 438.836 151.07C461.836 157.07 472.837 139.07 461.836 120.07C487.837 111.07 475.837 81.0698 461.836 81.0698C466.837 62.0698 444.837 55.0698 427.837 62.0698C427.837 43.0698 400.837 39.0698 393.836 55.0698C382.837 34.0698 358.837 28.0698 337.837 55.0698Z" stroke="#323D3A" stroke-width="2"/>
<path d="M357.023 100.773H362.414V102H355.516V90.625H357.023V100.773ZM370.562 99.0312H365.797L364.727 102H363.18L367.523 90.625H368.836L373.188 102H371.648L370.562 99.0312ZM366.25 97.7969H370.117L368.18 92.4766L366.25 97.7969ZM383.461 102H381.953L376.227 93.2344V102H374.719V90.625H376.227L381.969 99.4297V90.625H383.461V102ZM320.648 124H319.195V114.367L316.281 115.438V114.125L320.422 112.57H320.648V124ZM330.422 119C330.12 119.359 329.758 119.648 329.336 119.867C328.919 120.086 328.461 120.195 327.961 120.195C327.305 120.195 326.732 120.034 326.242 119.711C325.758 119.388 325.383 118.935 325.117 118.352C324.852 117.763 324.719 117.115 324.719 116.406C324.719 115.646 324.862 114.961 325.148 114.352C325.44 113.742 325.852 113.276 326.383 112.953C326.914 112.63 327.534 112.469 328.242 112.469C329.367 112.469 330.253 112.891 330.898 113.734C331.549 114.573 331.875 115.719 331.875 117.172V117.594C331.875 119.807 331.438 121.424 330.562 122.445C329.688 123.461 328.367 123.982 326.602 124.008H326.32V122.789H326.625C327.818 122.768 328.734 122.458 329.375 121.859C330.016 121.255 330.365 120.302 330.422 119ZM328.195 119C328.68 119 329.125 118.852 329.531 118.555C329.943 118.258 330.242 117.891 330.43 117.453V116.875C330.43 115.927 330.224 115.156 329.812 114.562C329.401 113.969 328.88 113.672 328.25 113.672C327.615 113.672 327.104 113.917 326.719 114.406C326.333 114.891 326.141 115.531 326.141 116.328C326.141 117.104 326.326 117.745 326.695 118.25C327.07 118.75 327.57 119 328.195 119ZM341.32 124H333.867V122.961L337.805 118.586C338.388 117.924 338.789 117.388 339.008 116.977C339.232 116.56 339.344 116.13 339.344 115.688C339.344 115.094 339.164 114.607 338.805 114.227C338.445 113.846 337.966 113.656 337.367 113.656C336.648 113.656 336.089 113.862 335.688 114.273C335.292 114.68 335.094 115.247 335.094 115.977H333.648C333.648 114.93 333.984 114.083 334.656 113.438C335.333 112.792 336.237 112.469 337.367 112.469C338.424 112.469 339.26 112.747 339.875 113.305C340.49 113.857 340.797 114.594 340.797 115.516C340.797 116.635 340.083 117.969 338.656 119.516L335.609 122.82H341.32V124ZM343.031 123.242C343.031 122.992 343.104 122.784 343.25 122.617C343.401 122.451 343.625 122.367 343.922 122.367C344.219 122.367 344.443 122.451 344.594 122.617C344.75 122.784 344.828 122.992 344.828 123.242C344.828 123.482 344.75 123.682 344.594 123.844C344.443 124.005 344.219 124.086 343.922 124.086C343.625 124.086 343.401 124.005 343.25 123.844C343.104 123.682 343.031 123.482 343.031 123.242ZM351.82 124H350.367V114.367L347.453 115.438V114.125L351.594 112.57H351.82V124ZM361.727 112.617V113.844H361.461C360.336 113.865 359.44 114.198 358.773 114.844C358.107 115.49 357.721 116.398 357.617 117.57C358.216 116.883 359.034 116.539 360.07 116.539C361.06 116.539 361.849 116.888 362.438 117.586C363.031 118.284 363.328 119.185 363.328 120.289C363.328 121.461 363.008 122.398 362.367 123.102C361.732 123.805 360.878 124.156 359.805 124.156C358.716 124.156 357.833 123.74 357.156 122.906C356.479 122.068 356.141 120.99 356.141 119.672V119.117C356.141 117.023 356.586 115.424 357.477 114.32C358.372 113.211 359.703 112.643 361.469 112.617H361.727ZM359.828 117.742C359.333 117.742 358.878 117.891 358.461 118.188C358.044 118.484 357.755 118.857 357.594 119.305V119.836C357.594 120.773 357.805 121.529 358.227 122.102C358.648 122.674 359.174 122.961 359.805 122.961C360.456 122.961 360.966 122.721 361.336 122.242C361.711 121.763 361.898 121.135 361.898 120.359C361.898 119.578 361.708 118.948 361.328 118.469C360.953 117.984 360.453 117.742 359.828 117.742ZM371.938 115.594C371.938 116.161 371.786 116.667 371.484 117.109C371.188 117.552 370.784 117.898 370.273 118.148C370.867 118.404 371.336 118.776 371.68 119.266C372.029 119.755 372.203 120.31 372.203 120.93C372.203 121.914 371.87 122.698 371.203 123.281C370.542 123.865 369.669 124.156 368.586 124.156C367.492 124.156 366.615 123.865 365.953 123.281C365.297 122.693 364.969 121.909 364.969 120.93C364.969 120.315 365.135 119.76 365.469 119.266C365.807 118.771 366.273 118.396 366.867 118.141C366.362 117.891 365.964 117.544 365.672 117.102C365.38 116.659 365.234 116.156 365.234 115.594C365.234 114.635 365.542 113.875 366.156 113.312C366.771 112.75 367.581 112.469 368.586 112.469C369.586 112.469 370.393 112.75 371.008 113.312C371.628 113.875 371.938 114.635 371.938 115.594ZM370.758 120.898C370.758 120.263 370.555 119.745 370.148 119.344C369.747 118.943 369.221 118.742 368.57 118.742C367.919 118.742 367.396 118.94 367 119.336C366.609 119.732 366.414 120.253 366.414 120.898C366.414 121.544 366.604 122.052 366.984 122.422C367.37 122.792 367.904 122.977 368.586 122.977C369.263 122.977 369.794 122.792 370.18 122.422C370.565 122.047 370.758 121.539 370.758 120.898ZM368.586 113.656C368.018 113.656 367.557 113.833 367.203 114.188C366.854 114.536 366.68 115.013 366.68 115.617C366.68 116.195 366.852 116.664 367.195 117.023C367.544 117.378 368.008 117.555 368.586 117.555C369.164 117.555 369.625 117.378 369.969 117.023C370.318 116.664 370.492 116.195 370.492 115.617C370.492 115.039 370.312 114.568 369.953 114.203C369.594 113.839 369.138 113.656 368.586 113.656ZM374.203 123.242C374.203 122.992 374.276 122.784 374.422 122.617C374.573 122.451 374.797 122.367 375.094 122.367C375.391 122.367 375.615 122.451 375.766 122.617C375.922 122.784 376 122.992 376 123.242C376 123.482 375.922 123.682 375.766 123.844C375.615 124.005 375.391 124.086 375.094 124.086C374.797 124.086 374.573 124.005 374.422 123.844C374.276 123.682 374.203 123.482 374.203 123.242ZM382.992 124H381.539V114.367L378.625 115.438V114.125L382.766 112.57H382.992V124ZM387.406 123.242C387.406 122.992 387.479 122.784 387.625 122.617C387.776 122.451 388 122.367 388.297 122.367C388.594 122.367 388.818 122.451 388.969 122.617C389.125 122.784 389.203 122.992 389.203 123.242C389.203 123.482 389.125 123.682 388.969 123.844C388.818 124.005 388.594 124.086 388.297 124.086C388 124.086 387.776 124.005 387.625 123.844C387.479 123.682 387.406 123.482 387.406 123.242ZM398.578 119.148C398.578 120.841 398.289 122.099 397.711 122.922C397.133 123.745 396.229 124.156 395 124.156C393.786 124.156 392.888 123.755 392.305 122.953C391.721 122.146 391.419 120.943 391.398 119.344V117.414C391.398 115.742 391.688 114.5 392.266 113.688C392.844 112.875 393.75 112.469 394.984 112.469C396.208 112.469 397.109 112.862 397.688 113.648C398.266 114.43 398.562 115.638 398.578 117.273V119.148ZM397.133 117.172C397.133 115.948 396.961 115.057 396.617 114.5C396.273 113.938 395.729 113.656 394.984 113.656C394.245 113.656 393.706 113.935 393.367 114.492C393.029 115.049 392.854 115.906 392.844 117.062V119.375C392.844 120.604 393.021 121.513 393.375 122.102C393.734 122.685 394.276 122.977 395 122.977C395.714 122.977 396.242 122.701 396.586 122.148C396.935 121.596 397.117 120.727 397.133 119.539V117.172ZM400.867 124.977H399.625L404.375 112.625H405.609L400.867 124.977ZM414.477 124H407.023V122.961L410.961 118.586C411.544 117.924 411.945 117.388 412.164 116.977C412.388 116.56 412.5 116.13 412.5 115.688C412.5 115.094 412.32 114.607 411.961 114.227C411.602 113.846 411.122 113.656 410.523 113.656C409.805 113.656 409.245 113.862 408.844 114.273C408.448 114.68 408.25 115.247 408.25 115.977H406.805C406.805 114.93 407.141 114.083 407.812 113.438C408.49 112.792 409.393 112.469 410.523 112.469C411.581 112.469 412.417 112.747 413.031 113.305C413.646 113.857 413.953 114.594 413.953 115.516C413.953 116.635 413.24 117.969 411.812 119.516L408.766 122.82H414.477V124ZM422.109 120.18H423.688V121.359H422.109V124H420.656V121.359H415.477V120.508L420.57 112.625H422.109V120.18ZM417.117 120.18H420.656V114.602L420.484 114.914L417.117 120.18Z" fill="black"/>
<path d="M87 113H271" stroke="#323D3A" stroke-width="2"/>
<path d="M473 113H650" stroke="#323D3A" stroke-width="2"/>
</svg>
